# AST/ASF file generated using VICON BodyLanguage
# -----------------------------------------------
:version 1.10
:name VICON
:units
  mass 1.0
  length 0.45
  angle deg
:documentation
   .ast/.asf automatically generated from VICON data using
   VICON BodyBuilder and BodyLanguage model FoxedUp or BRILLIANT.MOD
:root
   order TX TY TZ RX RY RZ
   axis XYZ
   position 0 0 0  
   orientation 0 0 0 
:bonedata
  begin
     id 1 
     name lhipjoint
     direction 0.573633 -0.743009 0.344793 
     length 2.46257 
     axis 0 0 0  XYZ
  end
  begin
     id 2 
     name lfemur
     direction 0.34202 -0.939693 0  
     length 7.3842  
     axis 0 0 20  XYZ
    dof rx ry rz
    limits (-160.0 20.0)
           (-70.0 70.0)
           (-60.0 70.0)
  end
  begin
     id 3 
     name ltibia
     direction 0.34202 -0.939693 0   
     length 7.50407   
     axis 0 0 20   XYZ
    dof rx
    limits (-10.0 170.0)
  end
  begin
     id 4 
     name lfoot
     direction 0.110749 -0.304281 0.946123   
     length 1.95925   
     axis -90 7.62852e-016 20   XYZ
    dof rx rz
    limits (-45.0 90.0)
           (-70.0 20.0)
  end
  begin
     id 5 
     name ltoes
     direction 1.53554e-011 -4.21843e-011 1   
     length 0.978318   
     axis -90 7.62852e-016 20   XYZ
    dof rx
    limits (-90.0 20.0)
  end
  begin
     id 6 
     name rhipjoint
     direction -0.488109 -0.791693 0.367385   
     length 2.31113  
     axis 0 0 0  XYZ 
  end
  begin
     id 7 
     name rfemur
     direction -0.34202 -0.939693 0   
     length 7.40965   
     axis 0 0 -20   XYZ
    dof rx ry rz
    limits (-160.0 20.0)
           (-70.0 70.0)
           (-70.0 60.0)
  end
  begin
     id 8 
     name rtibia
     direction -0.34202 -0.939693 0   
     length 7.55548   
     axis 0 0 -20   XYZ
    dof rx
    limits (-10.0 170.0)
 end
 begin
     id 9 
     name rfoot
     direction -0.127594 -0.350561 0.927808   
     length 2.07199  
     axis -90 -7.62852e-016 -20   XYZ
    dof rx rz
    limits (-45.0 90.0)
           (-20.0 70.0)
  end
  begin
     id 10 
     name rtoes
     direction -1.53542e-011 -4.21909e-011 1   
     length 1.02667   
     axis -90 -7.62852e-016 -20   XYZ
    dof rx
    limits (-90.0 20.0)
  end
  begin
     id 11 
     name lowerback
     direction -0.0103342 0.997298 -0.0727278   
     length 2.02836   
     axis 0 0 0   XYZ
    dof rx ry rz
    limits (-20.0 45.0)
           (-30.0 30.0)
           (-30.0 30.0)
  end
  begin
     id 12 
     name upperback
     direction 0.0171146 0.999786 -0.011606   
     length 2.03179   
     axis 0 0 0   XYZ
    dof rx ry rz
    limits (-20.0 45.0)
           (-30.0 30.0)
           (-30.0 30.0)
  end
  begin
     id 13 
     name thorax
     direction 0.0216927 0.999513 0.0224343   
     length 2.03882   
     axis 0 0 0   XYZ
    dof rx ry rz
    limits (-20.0 45.0)
           (-30.0 30.0)
           (-30.0 30.0)
  end
  begin
     id 14 
     name lowerneck
     direction 0.000989287 0.993907 0.110221   
     length 1.75428   
     axis 0 0 0   XYZ
    dof rx ry rz
    limits (-20.0 45.0)
           (-30.0 30.0)
           (-30.0 30.0)
  end
  begin
     id 15 
     name upperneck
     direction -0.0172474 0.994813 -0.100253   
     length 1.77058   
     axis 0 0 0   XYZ
    dof rx ry rz
    limits (-20.0 45.0)
           (-30.0 30.0)
           (-30.0 30.0)
  end
  begin
     id 16
     name head
     direction -0.00486455 0.99894 -0.0457663  
     length 1.77427  
     axis 0 0 0   XYZ
    dof rx ry rz
    limits (-20.0 45.0)
           (-30.0 30.0)
           (-30.0 30.0)
  end
  begin
     id 17 
     name lclavicle
     direction 0.927314 0.333734 -0.169441  
     length 3.97584  
     axis 0 0 0   XYZ
    dof ry rz
    limits (-20.0 10.0)
           (0.0 20.0)
  end
  begin
     id 18 
     name lhumerus
     direction 1 -4.48965e-011 -3.25313e-028   
     length 4.76468   
     axis 180 -30 -90   XYZ
    dof rx ry rz
    limits (-60.0 90.0)
           (-90.0 90.0)
           (-90.0 90.0)
  end
  begin
     id 19
     name lradius
     direction 1 -4.48969e-011 -2.8465e-028   
     length 3.52712   
     axis -180 -30 -90   XYZ
    dof rx
    limits (-10.0 170.0)
  end
  begin
     id 20
     name lwrist
     direction 1 -4.4896e-011 -7.78665e-028   
     length 1.76356   
     axis 1.91374e-015 90 90   XYZ
    dof ry
    limits (-180.0 0.0)
 end
  begin
     id 21 
     name lhand
     direction 1 -4.48959e-011 -1.55733e-027   
     length 0.859564   
     axis 9.9371e-016 90 90   XYZ
    dof rx rz
    limits (-90.0 90.0)
           (-45.0 45.0)
  end
  begin
     id 22 
     name lfingers
     direction 1 -4.48965e-011 -3.11466e-027   
     length 0.693002   
     axis 1.98742e-015 90 90   XYZ
    dof rx
    limits (0.0 90.0)
  end
  begin
     id 23
     name lthumb
     direction 0.707107 -6.34948e-011 0.707107   
     length 0.995017   
     axis -90 45 2.85299e-015   XYZ
    dof rx rz
    limits (-45.0 45.0)
           (-45.0 45.0)
  end
  begin
     id 24 
     name rclavicle
     direction -0.899388 0.348209 -0.264294   
     length 3.68366  
     axis 0 0 0   XYZ 
    dof ry rz
    limits (-10.0 20.0)
           (-20.0 0.0)
  end
  begin
     id 25 
     name rhumerus
     direction -1 -4.48965e-011 -3.01536e-027  
     length 4.90577   
     axis 180 30 90   XYZ
    dof rx ry rz
    limits (-90.0 60.0)
           (-90.0 90.0)
           (-90.0 90.0)
  end
  begin
     id 26 
     name rradius
     direction -1 -4.48966e-011 3.93291e-027   
     length 3.42692   
     axis -180 30 90   XYZ
    dof rx
    limits (-10.0 170.0)
  end
  begin
     id 27 
     name rwrist
     direction -1 -4.48969e-011 -7.78665e-028   
     length 1.71346   
     axis 1.91374e-015 -90 -90   XYZ
    dof ry
    limits (-180.0 0.0)
  end
  begin
     id 28
     name rhand
     direction -1 -4.48967e-011 -1.55733e-027   
     length 0.740957   
     axis 9.9371e-016 -90 -90   XYZ
    dof rx rz
    limits (-90.0 90.0)
           (-45.0 45.0)
  end
  begin
     id 29
     name rfingers
     direction -1 -4.48949e-011 -3.11466e-027   
     length 0.597378   
     axis 1.98742e-015 -90 -90   XYZ
    dof rx
    limits (0.0 90.0)
  end
  begin
     id 30
     name rthumb
     direction -0.707107 -6.34931e-011 0.707107   
     length 0.857719   
     axis -90 -45 -2.85299e-015   XYZ
    dof rx rz
    limits (-45.0 45.0)
           (-45.0 45.0)
  end
:hierarchy
  begin
    root lhipjoint rhipjoint lowerback
    lhipjoint lfemur
    lfemur ltibia
    ltibia lfoot
    lfoot ltoes
    rhipjoint rfemur
    rfemur rtibia
    rtibia rfoot
    rfoot rtoes
    lowerback upperback
    upperback thorax
    thorax lowerneck lclavicle rclavicle
    lowerneck upperneck
    upperneck head
    lclavicle lhumerus
    lhumerus lradius
    lradius lwrist
    lwrist lhand lthumb
    lhand lfingers
    rclavicle rhumerus
    rhumerus rradius
    rradius rwrist
    rwrist rhand rthumb
    rhand rfingers
  end

#!OML:ASF E:\I on waltz\AllaLogoMonkeySwing\Project 1\Capture day 1\Session 1\Subject1.ASF
:FULLY-SPECIFIED
:DEGREES
114
root 0.293214 17.95 -3.34222 3.81551 -2.35376 -1.21818
lowerback 4.83401 -0.643944 -1.18315
upperback -0.0635785 -0.874771 1.8106
thorax -2.73016 -0.408317 2.59162
lowerneck -13.2495 1.12694 -0.0644544
upperneck 23.7639 1.96703 -1.505
head 9.72182 0.730803 -0.273655
rclavicle -4.22417e-016 -3.18055e-015
rhumerus -29.8243 -24.5682 -77.0948
rradius 21.9064
rwrist 9.31478
rhand -4.85594 -36.2797
rfingers 7.12502
rthumb 20.9318 -65.1703
lclavicle -4.22417e-016 -3.18055e-015
lhumerus -38.5818 23.1745 79.5507
lradius 34.163
lwrist -5.33214
lhand -6.91983 -11.299
lfingers 7.12502
lthumb 18.9479 17.7981
rfemur -3.62364 1.58353 19.0887
rtibia 16.0767
rfoot -14.2477 -7.03353
rtoes 11.5251
lfemur 1.4732 3.53655 -18.3007
ltibia 9.38424
lfoot -12.549 5.10311
ltoes -28.5722
115
root 0.300256 17.9498 -3.34209 3.92788 -2.56074 -1.18105
lowerback 4.9419 -0.633431 -1.18781
upperback -0.0509845 -0.86162 1.80595
thorax -2.77844 -0.401285 2.5902
lowerneck -13.1823 1.22423 0.0530899
upperneck 23.6178 2.0943 -1.59459
head 9.66066 0.791786 -0.309597
rclavicle -1.16538e-014 1.59028e-015
rhumerus -30.0234 -24.7083 -76.8907
rradius 22.1052
rwrist 9.54504
rhand -4.29061 -36.4667
rfingers 7.12502
rthumb 21.4749 -65.2964
lclavicle -1.16538e-014 1.59028e-015
lhumerus -38.5725 23.0454 79.621
lradius 34.2566
lwrist -5.28221
lhand -6.97273 -11.273
lfingers 7.12502
lthumb 18.897 17.8291
rfemur -3.84326 1.62381 19.0073
rtibia 16.2404
rfoot -14.3067 -6.90946
rtoes 11.3336
lfemur 1.37385 3.69665 -18.3837
ltibia 9.37813
lfoot -12.5392 5.15837
ltoes -28.3886
116
root 0.308235 17.9502 -3.3444 4.09836 -2.77501 -1.1564
lowerback 5.02386 -0.626162 -1.15023
upperback -0.0322092 -0.850185 1.80505
thorax -2.80625 -0.395958 2.56843
lowerneck -13.2354 1.30726 0.145771
upperneck 23.5333 2.2157 -1.70943
head 9.64464 0.843671 -0.350043
rclavicle 1.58531e-014 -1.05356e-014
rhumerus -30.1888 -24.8793 -76.6885
rradius 22.3655
rwrist 9.68265
rhand -3.74204 -36.5247
rfingers 7.12502
rthumb 22.0017 -65.2933
lclavicle 1.58531e-014 -1.05356e-014
lhumerus -38.4925 22.856 79.7656
lradius 34.3286
lwrist -5.19439
lhand -7.07455 -11.3148
lfingers 7.12502
lthumb 18.7991 17.7968
rfemur -4.16677 1.68066 18.9365
rtibia 16.4535
rfoot -14.372 -6.78254
rtoes 11.1021
lfemur 1.16048 3.89536 -18.4517
ltibia 9.44967
lfoot -12.5504 5.19502
ltoes -28.1766
117
root 0.315852 17.951 -3.34794 4.30077 -2.9908 -1.1144
lowerback 5.0828 -0.633305 -1.16109
upperback -0.0177119 -0.860221 1.82056
thorax -2.82347 -0.400648 2.59215
lowerneck -13.2253 1.40628 0.216892
upperneck 23.3325 2.36709 -1.84716
head 9.57635 0.906587 -0.391514
rclavicle 1.54058e-015 -2.10712e-014
rhumerus -30.3333 -24.764 -76.6006
rradius 22.7517
rwrist 9.42091
rhand -3.39412 -36.5423
rfingers 7.12502
rthumb 22.3357 -65.2712
lclavicle 1.54058e-015 -2.10712e-014
lhumerus -38.4361 22.7312 79.9236
lradius 34.4095
lwrist -5.06358
lhand -7.05521 -11.6882
lfingers 7.12502
lthumb 18.8177 17.4216
rfemur -4.53383 1.74659 18.8417
rtibia 16.6462
rfoot -14.4168 -6.64083
rtoes 10.8533
lfemur 0.88059 4.12359 -18.5318
ltibia 9.57026
lfoot -12.5775 5.23759
ltoes -28.1952
118
root 0.322083 17.951 -3.35057 4.46875 -3.25648 -1.03103
lowerback 5.17772 -0.642581 -1.25709
upperback -0.0108157 -0.878458 1.83054
thorax -2.86712 -0.407895 2.65947
lowerneck -13.081 1.54598 0.307418
upperneck 23.042 2.56401 -1.97164
head 9.45231 0.995925 -0.427207
rclavicle 6.78353e-015 -1.27222e-014
rhumerus -30.5011 -24.4935 -76.5665
rradius 23.1803
rwrist 9.10384
rhand -2.9906 -36.545
rfingers 7.12502
rthumb 22.723 -65.227
lclavicle 6.78353e-015 -1.27222e-014
lhumerus -38.4316 22.6651 80.0194
lradius 34.461
lwrist -4.94565
lhand -6.82425 -12.3365
lfingers 7.12502
lthumb 19.0398 16.7516
rfemur -4.86482 1.78883 18.6904
rtibia 16.831
rfoot -14.4653 -6.41784
rtoes 10.7904
lfemur 0.650536 4.4009 -18.6495
ltibia 9.6887
lfoot -12.6369 5.27387
ltoes -28.2278
119
root 0.329536 17.9504 -3.35456 4.56676 -3.61045 -0.989292
lowerback 5.37271 -0.639874 -1.29575
upperback 0.0103294 -0.878131 1.83436
thorax -2.95415 -0.40631 2.68835
lowerneck -12.895 1.68674 0.384814
upperneck 22.745 2.75067 -2.04067
head 9.31799 1.08615 -0.443461
rclavicle 2.18663e-015 -6.75868e-015
rhumerus -30.7114 -24.2127 -76.5723
rradius 23.7244
rwrist 8.95839
rhand -2.40284 -36.8443
rfingers 7.12502
rthumb 23.287 -65.456
lclavicle 2.18663e-015 -6.75868e-015
lhumerus -38.4319 22.6238 80.066
lradius 34.4503
lwrist -5.04439
lhand -6.67393 -12.6512
lfingers 7.12502
lthumb 19.1844 16.4225
rfemur -5.12839 1.91521 18.5952
rtibia 17.0286
rfoot -14.5332 -6.20768
rtoes 10.9406
lfemur 0.533309 4.66531 -18.7288
ltibia 9.74095
lfoot -12.6225 5.40442
ltoes -28.1694
120
root 0.338322 17.9497 -3.35878 4.69605 -4.0238 -0.932045
lowerback 5.53941 -0.621678 -1.33914
upperback 0.0498274 -0.858083 1.82337
thorax -3.00761 -0.395484 2.7023
lowerneck -12.8647 1.81304 0.453073
upperneck 22.5586 2.91726 -2.08877
head 9.2515 1.16626 -0.452272
rclavicle 1.58034e-014 -1.43125e-014
rhumerus -30.8725 -23.939 -76.6301
rradius 24.3447
rwrist 8.82261
rhand -1.82142 -37.2472
rfingers 7.12502
rthumb 23.8447 -65.7872
lclavicle 1.58034e-014 -1.43125e-014
lhumerus -38.4347 22.3521 80.1955
lradius 34.5454
lwrist -5.03294
lhand -6.68831 -12.6236
lfingers 7.12502
lthumb 19.1706 16.4516
rfemur -5.43086 2.09665 18.4753
rtibia 17.2153
rfoot -14.5943 -6.00645
rtoes 11.0248
lfemur 0.390126 4.89435 -18.856
ltibia 9.7699
lfoot -12.5705 5.63744
ltoes -27.9767
121
root 0.345512 17.95 -3.3609 4.87259 -4.46694 -0.879925
lowerback 5.61818 -0.594189 -1.39565
upperback 0.118964 -0.826366 1.81349
thorax -2.98158 -0.379922 2.72193
lowerneck -12.9811 1.95891 0.60477
upperneck 22.4503 3.11627 -2.22787
head 9.24361 1.25663 -0.501015
rclavicle 2.21645e-014 1.11319e-014
rhumerus -30.8957 -23.6453 -76.7301
rradius 24.8966
rwrist 8.50353
rhand -1.4273 -37.3539
rfingers 7.12502
rthumb 24.2226 -65.8441
lclavicle 2.21645e-014 1.11319e-014
lhumerus -38.4446 21.7959 80.4563
lradius 34.7702
lwrist -4.69114
lhand -6.72888 -12.5865
lfingers 7.12502
lthumb 19.1316 16.4926
rfemur -5.77193 2.20595 18.3482
rtibia 17.3699
rfoot -14.6381 -5.69462
rtoes 10.9805
lfemur 0.203419 5.1796 -18.9759
ltibia 9.82718
lfoot -12.6024 5.82915
ltoes -27.6536
122
root 0.352921 17.951 -3.36488 5.01441 -4.90033 -0.888424
lowerback 5.77158 -0.61201 -1.40917
upperback 0.187386 -0.852174 1.82241
thorax -2.99518 -0.393032 2.74266
lowerneck -12.9604 2.16119 0.817794
upperneck 22.2177 3.38137 -2.39218
head 9.17022 1.38277 -0.562253
rclavicle -1.35174e-014 1.78906e-014
rhumerus -30.864 -22.804 -77.1232
rradius 25.4698
rwrist 6.90621
rhand -2.33176 -37.2392
rfingers 7.12502
rthumb 23.3552 -65.8423
lclavicle -1.35174e-014 1.78906e-014
lhumerus -38.5173 21.3419 80.6639
lradius 35.0082
lwrist -4.38381
lhand -6.72649 -12.5006
lfingers 7.12502
lthumb 19.1339 16.5782
rfemur -6.05521 2.31528 18.3023
rtibia 17.5071
rfoot -14.6745 -5.37534
rtoes 10.9807
lfemur 0.0389133 5.46551 -19.0133
ltibia 9.91909
lfoot -12.634 5.98135
ltoes -27.3992
123
root 0.362279 17.9512 -3.37204 5.13967 -5.35225 -0.829085
lowerback 6.00488 -0.664884 -1.51249
upperback 0.240828 -0.93196 1.80833
thorax -3.06484 -0.431036 2.79646
lowerneck -12.8082 2.40898 1.09263
upperneck 21.887 3.69736 -2.57854
head 9.04244 1.53788 -0.637062
rclavicle -2.16178e-014 9.93923e-015
rhumerus -30.8731 -21.3685 -77.9099
rradius 26.1055
rwrist 3.5296
rhand -5.44517 -36.5931
rfingers 7.12502
rthumb 20.3656 -65.5452
lclavicle -2.16178e-014 9.93923e-015
lhumerus -38.5937 21.0986 80.7255
lradius 35.2023
lwrist -4.32299
lhand -6.65538 -12.4387
lfingers 7.12502
lthumb 19.2022 16.6333
rfemur -6.35148 2.50052 18.1742
rtibia 17.6527
rfoot -14.6882 -5.10202
rtoes 11.0948
lfemur -0.149438 5.65434 -19.1547
ltibia 10.0294
lfoot -12.5771 6.21382
ltoes -27.3634
124
root 0.371511 17.9498 -3.37949 5.28685 -5.85901 -0.861621
lowerback 6.21227 -0.713287 -1.54015
upperback 0.326721 -0.999928 1.82692
thorax -3.08753 -0.464961 2.83993
lowerneck -12.5956 2.68396 1.46374
upperneck 21.4012 4.07042 -2.9615
head 8.86046 1.70966 -0.789233
rclavicle 2.89232e-014 -2.98177e-014
rhumerus -30.9345 -20.9257 -78.1361
rradius 26.6971
rwrist 3.06451
rhand -5.61465 -36.2019
rfingers 7.12502
rthumb 20.2028 -65.1713
lclavicle 2.89232e-014 -2.98177e-014
lhumerus -38.5943 20.8632 80.8054
lradius 35.3745
lwrist -4.44157
lhand -6.55943 -12.4162
lfingers 7.12502
lthumb 19.2945 16.6467
rfemur -6.70455 2.68552 18.1519
rtibia 17.8455
rfoot -14.7197 -4.80842
rtoes 11.049
lfemur -0.349207 5.87473 -19.1913
ltibia 10.1383
lfoot -12.5307 6.48909
ltoes -27.5177
125
root 0.379772 17.9484 -3.3888 5.47253 -6.4072 -0.99274
lowerback 6.38739 -0.755249 -1.46805
upperback 0.429846 -1.05095 1.8826
thorax -3.07625 -0.492265 2.86351
lowerneck -12.4074 2.97402 1.75787
upperneck 20.8904 4.4795 -3.3484
head 8.67816 1.89288 -0.925409
rclavicle 1.54058e-014 -2.5842e-015
rhumerus -30.8923 -20.4132 -78.3671
rradius 27.2021
rwrist 2.55588
rhand -5.7492 -36.1556
rfingers 7.12502
rthumb 20.0734 -65.1386
lclavicle 1.54058e-014 -2.5842e-015
lhumerus -38.5587 20.6134 80.9462
lradius 35.5393
lwrist -4.60797
lhand -6.44912 -12.3916
lfingers 7.12502
lthumb 19.4006 16.6606
rfemur -7.08901 2.93216 18.2587
rtibia 18.0202
rfoot -14.7363 -4.54709
rtoes 10.9842
lfemur -0.601794 6.2066 -19.0899
ltibia 10.3017
lfoot -12.5749 6.71965
ltoes -27.6028
